<svg width="129" height="26" viewBox="0 0 129 26" fill="none" xmlns="http://www.w3.org/2000/svg">
<path d="M15 3L15.5387 5.39157C15.9957 7.42015 17.5798 9.00431 19.6084 9.46127L22 10L19.6084 10.5387C17.5798 10.9957 15.9957 12.5798 15.5387 14.6084L15 17L14.4613 14.6084C14.0043 12.5798 12.4202 10.9957 10.3916 10.5387L8 10L10.3916 9.46127C12.4201 9.00431 14.0043 7.42015 14.4613 5.39158L15 3Z" stroke="white" stroke-width="1.5" stroke-linejoin="round"/>
<path d="M7 13L7.38481 14.7083C7.71121 16.1572 8.84275 17.2888 10.2917 17.6152L12 18L10.2917 18.3848C8.84275 18.7112 7.71121 19.8427 7.38481 21.2917L7 23L6.61519 21.2917C6.28879 19.8427 5.15725 18.7112 3.70827 18.3848L2 18L3.70827 17.6152C5.15725 17.2888 6.28879 16.1573 6.61519 14.7083L7 13Z" stroke="white" stroke-width="1.5" stroke-linejoin="round"/>
<path d="M37.18 5.28C40.22 5.28 42.12 6.8 42.12 9.6C42.12 12.4 40.22 13.98 37.18 13.98H34.32V19H31.56V5.28H37.18ZM37.18 11.72C38.58 11.72 39.32 10.84 39.32 9.62C39.32 8.42 38.58 7.56 37.18 7.56H34.32V11.72H37.18ZM49.0377 9.1C49.2577 9.1 49.5377 9.12 49.6577 9.18L49.6377 11.86C49.4777 11.8 49.3377 11.76 48.9577 11.76C47.7177 11.76 46.7177 12.54 46.5577 13.94V19H43.8177V9.2H46.4577L46.5177 10.8C46.9777 9.8 47.7577 9.1 49.0377 9.1ZM55.5052 9.1C58.5452 9.1 60.5452 11.12 60.5452 14.06C60.5452 17 58.5452 19.1 55.5052 19.1C52.5052 19.1 50.4852 17.1 50.4852 14.16C50.4852 11.2 52.5052 9.1 55.5052 9.1ZM55.5052 11.36C54.1452 11.36 53.2452 12.46 53.2452 14.12C53.2452 15.74 54.1452 16.84 55.5052 16.84C56.9052 16.84 57.7652 15.74 57.7652 14.12C57.7652 12.46 56.9052 11.36 55.5052 11.36ZM67.69 9.1C67.91 9.1 68.19 9.12 68.31 9.18L68.29 11.86C68.13 11.8 67.99 11.76 67.61 11.76C66.37 11.76 65.37 12.54 65.21 13.94V19H62.47V9.2H65.11L65.17 10.8C65.63 9.8 66.41 9.1 67.69 9.1ZM76.4975 9.2H79.1375V19C79.1375 21.38 77.3175 23.24 74.1175 23.24C71.4575 23.24 69.6975 22.2 69.4775 20H72.0575C72.2175 20.82 72.9175 21.16 74.1175 21.16C75.6375 21.16 76.3975 20.24 76.3975 19.1V17.58C75.8575 18.48 74.9175 19.08 73.4575 19.08C70.8375 19.08 69.1375 17 69.1375 14.12C69.1375 10.94 71.1375 9.1 73.5575 9.1C74.9975 9.1 75.9175 9.66 76.4175 10.46L76.4975 9.2ZM74.0975 16.78C75.5375 16.78 76.3975 15.56 76.3975 14.38V13.8C76.3975 12.68 75.5775 11.4 74.0975 11.4C72.8175 11.4 71.9175 12.48 71.9175 14.12C71.9175 15.72 72.8175 16.78 74.0975 16.78ZM90.9916 16.74L91.1516 18.9C90.7716 19.02 90.3116 19.1 89.7516 19.1C88.6916 19.1 87.8716 18.6 87.5316 17.52H87.5116C87.1916 18.12 86.3716 19.1 84.2916 19.1C82.1316 19.1 80.9716 18.04 80.9716 16.42C80.9716 14.02 83.4316 13.32 86.1116 13.32H87.3716V12.88C87.3716 11.86 86.7516 11.18 85.5116 11.18C84.4716 11.18 83.8116 11.7 83.7116 12.54H81.2316C81.3916 10.32 83.1116 9.1 85.6516 9.1C88.5116 9.1 90.0316 10.6 90.0316 13.08V16.24C90.0316 16.64 90.2116 16.84 90.4916 16.84C90.6716 16.84 90.7716 16.82 90.9916 16.74ZM85.0516 17.1C86.4916 17.1 87.3716 16.22 87.3716 15.44V14.82H85.9516C84.4916 14.82 83.6316 15.24 83.6316 16.1C83.6316 16.74 84.1116 17.1 85.0516 17.1ZM98.4258 9.1C100.646 9.1 101.846 10.66 101.846 12.86V19H99.1058V13.48C99.1058 12.24 98.5258 11.48 97.3658 11.48C96.1658 11.48 95.3858 12.3 95.3858 13.52V19H92.6458V9.2H95.2858L95.3658 10.64C95.9458 9.72 96.9258 9.1 98.4258 9.1ZM107.349 6.04C107.349 7.04 106.569 7.74 105.569 7.74C104.589 7.74 103.809 7.04 103.809 6.04C103.809 5.06 104.589 4.32 105.569 4.32C106.569 4.32 107.349 5.06 107.349 6.04ZM104.189 19V9.2H106.949V19H104.189ZM112.224 16.82H117.104V19H108.844V17L113.704 11.38H109.004V9.2H116.984V11.18L112.224 16.82ZM127.877 14.18V14.7H120.977C121.177 16.2 122.057 16.96 123.337 16.96C124.657 16.96 125.137 16.28 125.297 15.76H127.837C127.517 17.46 126.157 19.1 123.197 19.1C120.217 19.1 118.337 17.04 118.337 14.12C118.337 11.16 120.397 9.1 123.237 9.1C126.217 9.1 127.877 11.18 127.877 14.18ZM123.257 11.14C122.157 11.14 121.277 11.76 121.017 13.12H125.317C125.137 11.72 124.377 11.14 123.257 11.14Z" fill="white"/>
</svg>
