<svg width="99" height="48" viewBox="0 0 99 48" fill="none" xmlns="http://www.w3.org/2000/svg">
<path d="M54 2L54.5387 4.39157C54.9957 6.42015 56.5798 8.00431 58.6084 8.46127L61 9L58.6084 9.53873C56.5798 9.99569 54.9957 11.5798 54.5387 13.6084L54 16L53.4613 13.6084C53.0043 11.5798 51.4202 9.99569 49.3916 9.53873L47 9L49.3916 8.46127C51.4201 8.00431 53.0043 6.42015 53.4613 4.39158L54 2Z" stroke="#161618" stroke-width="1.5" stroke-linejoin="round"/>
<path d="M46 12L46.3848 13.7083C46.7112 15.1572 47.8427 16.2888 49.2917 16.6152L51 17L49.2917 17.3848C47.8427 17.7112 46.7112 18.8427 46.3848 20.2917L46 22L45.6152 20.2917C45.2888 18.8427 44.1573 17.7112 42.7083 17.3848L41 17L42.7083 16.6152C44.1572 16.2888 45.2888 15.1573 45.6152 13.7083L46 12Z" stroke="#161618" stroke-width="1.5" stroke-linejoin="round"/>
<path d="M7.18 27.28C10.22 27.28 12.12 28.8 12.12 31.6C12.12 34.4 10.22 35.98 7.18 35.98H4.32V41H1.56V27.28H7.18ZM7.18 33.72C8.58 33.72 9.32 32.84 9.32 31.62C9.32 30.42 8.58 29.56 7.18 29.56H4.32V33.72H7.18ZM19.0377 31.1C19.2577 31.1 19.5377 31.12 19.6577 31.18L19.6377 33.86C19.4777 33.8 19.3377 33.76 18.9577 33.76C17.7177 33.76 16.7177 34.54 16.5577 35.94V41H13.8177V31.2H16.4577L16.5177 32.8C16.9777 31.8 17.7577 31.1 19.0377 31.1ZM25.5052 31.1C28.5452 31.1 30.5452 33.12 30.5452 36.06C30.5452 39 28.5452 41.1 25.5052 41.1C22.5052 41.1 20.4852 39.1 20.4852 36.16C20.4852 33.2 22.5052 31.1 25.5052 31.1ZM25.5052 33.36C24.1452 33.36 23.2452 34.46 23.2452 36.12C23.2452 37.74 24.1452 38.84 25.5052 38.84C26.9052 38.84 27.7652 37.74 27.7652 36.12C27.7652 34.46 26.9052 33.36 25.5052 33.36ZM37.69 31.1C37.91 31.1 38.19 31.12 38.31 31.18L38.29 33.86C38.13 33.8 37.99 33.76 37.61 33.76C36.37 33.76 35.37 34.54 35.21 35.94V41H32.47V31.2H35.11L35.17 32.8C35.63 31.8 36.41 31.1 37.69 31.1ZM46.4975 31.2H49.1375V41C49.1375 43.38 47.3175 45.24 44.1175 45.24C41.4575 45.24 39.6975 44.2 39.4775 42H42.0575C42.2175 42.82 42.9175 43.16 44.1175 43.16C45.6375 43.16 46.3975 42.24 46.3975 41.1V39.58C45.8575 40.48 44.9175 41.08 43.4575 41.08C40.8375 41.08 39.1375 39 39.1375 36.12C39.1375 32.94 41.1375 31.1 43.5575 31.1C44.9975 31.1 45.9175 31.66 46.4175 32.46L46.4975 31.2ZM44.0975 38.78C45.5375 38.78 46.3975 37.56 46.3975 36.38V35.8C46.3975 34.68 45.5775 33.4 44.0975 33.4C42.8175 33.4 41.9175 34.48 41.9175 36.12C41.9175 37.72 42.8175 38.78 44.0975 38.78ZM60.9916 38.74L61.1516 40.9C60.7716 41.02 60.3116 41.1 59.7516 41.1C58.6916 41.1 57.8716 40.6 57.5316 39.52H57.5116C57.1916 40.12 56.3716 41.1 54.2916 41.1C52.1316 41.1 50.9716 40.04 50.9716 38.42C50.9716 36.02 53.4316 35.32 56.1116 35.32H57.3716V34.88C57.3716 33.86 56.7516 33.18 55.5116 33.18C54.4716 33.18 53.8116 33.7 53.7116 34.54H51.2316C51.3916 32.32 53.1116 31.1 55.6516 31.1C58.5116 31.1 60.0316 32.6 60.0316 35.08V38.24C60.0316 38.64 60.2116 38.84 60.4916 38.84C60.6716 38.84 60.7716 38.82 60.9916 38.74ZM55.0516 39.1C56.4916 39.1 57.3716 38.22 57.3716 37.44V36.82H55.9516C54.4916 36.82 53.6316 37.24 53.6316 38.1C53.6316 38.74 54.1116 39.1 55.0516 39.1ZM68.4258 31.1C70.6458 31.1 71.8458 32.66 71.8458 34.86V41H69.1058V35.48C69.1058 34.24 68.5258 33.48 67.3658 33.48C66.1658 33.48 65.3858 34.3 65.3858 35.52V41H62.6458V31.2H65.2858L65.3658 32.64C65.9458 31.72 66.9258 31.1 68.4258 31.1ZM77.3488 28.04C77.3488 29.04 76.5688 29.74 75.5688 29.74C74.5888 29.74 73.8088 29.04 73.8088 28.04C73.8088 27.06 74.5888 26.32 75.5688 26.32C76.5688 26.32 77.3488 27.06 77.3488 28.04ZM74.1888 41V31.2H76.9488V41H74.1888ZM82.2241 38.82H87.1041V41H78.8441V39L83.7041 33.38H79.0041V31.2H86.9841V33.18L82.2241 38.82ZM97.8767 36.18V36.7H90.9767C91.1767 38.2 92.0567 38.96 93.3367 38.96C94.6567 38.96 95.1367 38.28 95.2967 37.76H97.8367C97.5167 39.46 96.1567 41.1 93.1967 41.1C90.2167 41.1 88.3367 39.04 88.3367 36.12C88.3367 33.16 90.3967 31.1 93.2367 31.1C96.2167 31.1 97.8767 33.18 97.8767 36.18ZM93.2567 33.14C92.1567 33.14 91.2767 33.76 91.0167 35.12H95.3167C95.1367 33.72 94.3767 33.14 93.2567 33.14Z" fill="black"/>
</svg>
